<?xml version="1.0" encoding="UTF-8"?>
<svg id="Layer_1" data-name="Layer 1" xmlns="http://www.w3.org/2000/svg" xmlns:xlink="http://www.w3.org/1999/xlink" viewBox="0 0 2000 1000">
  <defs>
    <style>
      .cls-1 {
        fill: url(#linear-gradient);
      }
    </style>
    <linearGradient id="linear-gradient" x1="391.35" y1="268.9" x2="7.54" y2="665.57" gradientUnits="userSpaceOnUse">
      <stop offset="0" stop-color="#0e79d7"/>
      <stop offset="1" stop-color="#07134d"/>
    </linearGradient>
  </defs>
  <g>
    <path d="M787.03,447.96c0,53.93-40.03,96.07-106.6,96.07h-51.83v102.39h-42.13v-294.94h93.96c66.57,0,106.6,42.56,106.6,96.49ZM743.63,447.96c0-34.55-23.6-58.15-63.2-58.15h-51.83v115.87h51.83c39.61,0,63.2-23.17,63.2-57.72Z"/>
    <path d="M999.81,556.24h-169.8c5.9,34.97,32.02,58.99,73.73,58.99,23.17,0,44.24-8.85,56.04-24.02l31.6,20.22c-18.96,25.7-50.14,40.45-87.64,40.45-70.79,0-114.6-50.56-114.6-112.08s45.5-112.08,108.28-112.08c58.15,0,112.5,48.88,102.39,128.51ZM961.04,523.38c-5.06-36.24-27.39-59.41-63.62-59.41s-61.52,24.02-67.42,59.41h131.04Z"/>
    <path d="M1244.61,539.81c0,56.04-39.61,112.08-106.18,112.08-37.08,0-61.94-15.17-77.95-35.39v111.23h-38.34v-294.94h38.34v29.92c16.01-19.8,40.87-34.97,77.95-34.97,66.57,0,106.18,56.04,106.18,112.08ZM1205.42,539.81c0-42.98-26.97-75.84-70.79-75.84-47.19,0-74.16,33.71-74.16,75.84s26.97,75.42,74.16,75.42c43.82,0,70.79-32.44,70.79-75.42Z"/>
    <path d="M1318.34,469.45v93.54c0,30.34.42,50.56,33.71,50.56,6.32,0,10.96-.42,15.59-.84v33.71c-5.48,1.26-12.22,2.11-20.65,2.11-46.35,0-66.99-24.86-66.99-71.63v-107.44h-33.29v-36.66h33.29v-44.66h38.34v44.66h49.3v36.66h-49.3Z"/>
    <path d="M1392.5,372.96c0-11.8,9.69-21.91,21.91-21.91s21.91,10.11,21.91,21.91-9.69,21.91-21.91,21.91-21.91-9.69-21.91-21.91ZM1395.02,432.79h38.76v213.62h-38.76v-213.62Z"/>
    <path d="M1527.32,432.79h49.3v36.66h-49.3v176.96h-38.34v-176.96h-34.13v-36.66h34.13c0-44.66,14.75-86.38,73.31-86.38,5.9,0,9.27,0,14.33.84v31.6c-2.53,0-7.16-.42-10.11-.42-34.55,0-38.76,22.33-39.18,54.35Z"/>
    <path d="M1781.81,432.79v213.62h-38.34v-29.49c-12.64,18.96-33.71,34.97-65.73,34.97-48.03,0-82.16-40.03-82.16-85.11v-133.99h38.34v122.61c0,30.34,12.64,59.83,52.67,59.83s56.88-34.55,56.88-59.83v-122.61h38.34Z"/>
    <path d="M1853.86,351.47v294.94h-38.34v-294.94h38.34Z"/>
  </g>
  <path class="cls-1" d="M468.66,414.35c-.22,25.01-6.18,50.22-18.13,73.71-41.54,81.67-127.01,95.31-155.94,95.31-7.56,0-15.01-.46-22.31-1.38-1.13-4.43-2.2-8.89-3.23-13.35-12.2-53.12-10.16-108.64,13.83-157.97,24.74-50.92,63.8-87.93,110.01-119.28,5.7-3.86,12.73-3.99,18.6-1.31h.01c2.03.93,3.92,2.18,5.58,3.74,34.25,32.12,51.98,75.98,51.58,120.53ZM256.12,635.06c-8.94-69.62-31.28-144.42-103.38-170.89-18.63-6.84-37.49-11.17-57.3-13.05-4.8-.45-9.23,2.87-9.23,8.13v279.05c0,4.74,3.9,8.09,8.46,8.09h152.46c5.67,0,9.2-3.7,9.94-9.58,4.31-34.57,3.41-67.82-.95-101.76ZM342.51,260.5c-6.49-14.15-78.23-14.02-95.16-14.03l-152.89-.05c-4.81,0-8.25,3.89-8.25,8.5l-.02,163.35c0,4.3,2.09,8.09,6.82,8.77,50.58,7.33,101.83-3.33,145.12-30.86,45.42-28.89,80.49-75.44,104.06-123.02,1.75-3.53,1.78-9.51.33-12.67Z"/>
</svg>