<?xml version="1.0" encoding="UTF-8"?>
<svg id="House_of_Aminos" xmlns="http://www.w3.org/2000/svg" version="1.1" viewBox="0 0 180 72">
  <defs>
    <style>
      .st0 {
        fill: #ffffff;
      }
    </style>
  </defs>
  <polygon class="st0" points="11.37 13.7 25 13.7 25 15.36 21.79 18.58 14.2 18.58 14.2 31.35 8.19 31.35 8.19 16.88 11.37 13.7"/>
  <rect class="st0" x="27.06" y="1.36" width="6.02" height="29.99"/>
  <polygon class="st0" points="14.2 1.36 14.2 11.64 11.36 11.64 8.19 8.47 8.19 1.36 14.2 1.36"/>
  <path class="st0" d="M49.57,31.74c-6.88,0-12.07-4.81-12.07-12.29s5.37-12.29,12.25-12.29,12.25,4.77,12.25,12.29-5.5,12.29-12.42,12.29ZM49.57,26.5c3.18,0,6.23-2.32,6.23-7.05s-2.97-7.05-6.14-7.05-6.06,2.28-6.06,7.05,2.75,7.05,5.97,7.05Z"/>
  <path class="st0" d="M88.88,31.35h-6.06v-3.01c-1.5,2.02-4.13,3.31-7.09,3.31-5.54,0-9.54-3.61-9.54-10.14V7.55h6.02v13.11c0,3.82,2.11,5.89,5.29,5.89s5.33-2.06,5.33-5.89V7.55h6.06v23.81Z"/>
  <path class="st0" d="M103.92,31.74c-5.97,0-10.14-3.48-10.4-7.91h6.06c.22,1.8,1.89,3.18,4.3,3.18s3.65-1.07,3.65-2.45c0-4.25-13.45-1.55-13.45-10.27,0-3.95,3.52-7.13,9.41-7.13s9.24,3.14,9.58,7.86h-5.76c-.17-1.85-1.63-3.09-4-3.09-2.23,0-3.4.9-3.4,2.28,0,4.34,13.19,1.63,13.36,10.36,0,4.08-3.57,7.18-9.37,7.18Z"/>
  <path class="st0" d="M128.63,31.74c-6.92,0-11.95-4.81-11.95-12.29s4.9-12.29,11.95-12.29,11.73,4.68,11.73,11.77c0,.77-.04,1.55-.17,2.32h-17.4c.3,3.52,2.71,5.5,5.72,5.5,2.58,0,4-1.29,4.77-2.88h6.49c-1.29,4.38-5.24,7.86-11.13,7.86ZM122.83,17.21h11.3c-.09-3.14-2.58-5.11-5.67-5.11-2.88,0-5.16,1.85-5.63,5.11Z"/>
  <g>
    <path class="st0" d="M152.26,20.42c-3.17,0-5.64,2.2-5.64,5.66s2.39,5.66,5.56,5.66,5.72-2.22,5.72-5.66-2.47-5.66-5.64-5.66ZM152.18,29.32c-1.48,0-2.75-1.07-2.75-3.25s1.33-3.25,2.79-3.25,2.83,1.05,2.83,3.25-1.41,3.25-2.87,3.25Z"/>
    <path class="st0" d="M163.05,20.59v-.46c0-1.23.46-1.66,1.8-1.62v-2.34c-3.09-.08-4.61,1.17-4.61,3.86v.55h-1.25v2.28h1.25v8.69h2.81v-8.69h1.92v-2.28h-1.92Z"/>
  </g>
  <path class="st0" d="M28.3,64.54h-11.95l-1.98,5.72h-6.32l10.79-30.04h7l10.79,30.04h-6.36l-1.98-5.72ZM22.33,47.18l-4.34,12.55h8.68l-4.34-12.55Z"/>
  <path class="st0" d="M73.98,57.1c0-3.78-2.11-5.76-5.29-5.76s-5.33,1.98-5.33,5.76v13.15h-6.02v-13.15c0-3.78-2.11-5.76-5.29-5.76s-5.37,1.98-5.37,5.76v13.15h-6.02v-23.81h6.02v2.88c1.5-1.98,4.04-3.22,7-3.22,3.7,0,6.75,1.59,8.38,4.56,1.55-2.71,4.68-4.56,8.16-4.56,5.72,0,9.75,3.61,9.75,10.18v13.97h-6.02v-13.15Z"/>
  <path class="st0" d="M85.06,40.09c0-1.98,1.55-3.52,3.7-3.52s3.7,1.55,3.7,3.52-1.59,3.52-3.7,3.52-3.7-1.55-3.7-3.52ZM85.7,46.45h6.02v23.81h-6.02v-23.81Z"/>
  <path class="st0" d="M114.32,57.1c0-3.82-2.11-5.89-5.29-5.89s-5.37,2.06-5.37,5.89v13.15h-6.02v-23.81h6.02v2.97c1.55-2.02,4.13-3.31,7.18-3.31,5.54,0,9.5,3.61,9.5,10.18v13.97h-6.02v-13.15Z"/>
  <path class="st0" d="M136.62,70.64c-6.88,0-12.07-4.81-12.07-12.29s5.37-12.29,12.25-12.29,12.25,4.77,12.25,12.29-5.5,12.29-12.42,12.29ZM136.62,65.4c3.18,0,6.23-2.32,6.23-7.05s-2.97-7.05-6.14-7.05-6.06,2.28-6.06,7.05,2.75,7.05,5.97,7.05Z"/>
  <path class="st0" d="M162.57,70.64c-5.97,0-10.14-3.48-10.4-7.91h6.06c.22,1.8,1.89,3.18,4.3,3.18s3.65-1.07,3.65-2.45c0-4.25-13.45-1.55-13.45-10.27,0-3.95,3.52-7.13,9.41-7.13s9.24,3.14,9.58,7.86h-5.76c-.17-1.85-1.63-3.09-4-3.09-2.23,0-3.4.9-3.4,2.28,0,4.34,13.19,1.63,13.36,10.36,0,4.08-3.57,7.18-9.37,7.18Z"/>
</svg>