<?xml version="1.0" encoding="UTF-8"?>
<svg id="Layer_1" data-name="Layer 1" xmlns="http://www.w3.org/2000/svg" xmlns:xlink="http://www.w3.org/1999/xlink" viewBox="0 0 2000 1000">
  <defs>
    <style>
      .cls-1 {
        fill: #f7f7ff;
      }

      .cls-2 {
        filter: url(#drop-shadow-1);
      }
    </style>
    <filter id="drop-shadow-1" x="86.19" y="245.23" width="1777.77" height="502.83" filterUnits="userSpaceOnUse">
      <feOffset dx="3.06" dy="3.06"/>
      <feGaussianBlur result="blur" stdDeviation="2.19"/>
      <feFlood flood-color="#000" flood-opacity=".2"/>
      <feComposite in2="blur" operator="in"/>
      <feComposite in="SourceGraphic"/>
    </filter>
  </defs>
  <g class="cls-2">
    <g>
      <path class="cls-1" d="M791.03,447.92c0,54.24-40.26,96.61-107.21,96.61h-52.12v102.97h-42.37v-296.62h94.49c66.95,0,107.21,42.8,107.21,97.04ZM747.39,447.92c0-34.75-23.73-58.48-63.56-58.48h-52.12v116.53h52.12c39.83,0,63.56-23.31,63.56-58.05Z"/>
      <path class="cls-1" d="M1005.03,556.82h-170.77c5.93,35.17,32.2,59.32,74.15,59.32,23.31,0,44.49-8.9,56.36-24.15l31.78,20.34c-19.07,25.85-50.42,40.68-88.14,40.68-71.19,0-115.26-50.85-115.26-112.71s45.76-112.71,108.9-112.71c58.48,0,113.14,49.15,102.97,129.24ZM966.04,523.77c-5.08-36.44-27.54-59.75-63.98-59.75s-61.87,24.15-67.8,59.75h131.78Z"/>
      <path class="cls-1" d="M1251.22,540.3c0,56.36-39.83,112.71-106.78,112.71-37.29,0-62.29-15.25-78.39-35.59v111.87h-38.56v-296.62h38.56v30.08c16.1-19.92,41.1-35.17,78.39-35.17,66.95,0,106.78,56.36,106.78,112.71ZM1211.81,540.3c0-43.22-27.12-76.27-71.19-76.27-47.46,0-74.58,33.9-74.58,76.27s27.12,75.85,74.58,75.85c44.07,0,71.19-32.63,71.19-75.85Z"/>
      <path class="cls-1" d="M1325.38,469.53v94.07c0,30.51.42,50.85,33.9,50.85,6.36,0,11.02-.42,15.68-.85v33.9c-5.51,1.27-12.29,2.12-20.76,2.12-46.61,0-67.37-25-67.37-72.04v-108.05h-33.48v-36.87h33.48v-44.92h38.56v44.92h49.58v36.87h-49.58Z"/>
      <path class="cls-1" d="M1399.96,372.5c0-11.86,9.75-22.03,22.04-22.03s22.03,10.17,22.03,22.03-9.75,22.03-22.03,22.03-22.04-9.75-22.04-22.03ZM1402.5,432.67h38.98v214.83h-38.98v-214.83Z"/>
      <path class="cls-1" d="M1535.55,432.67h49.58v36.87h-49.58v177.97h-38.56v-177.97h-34.32v-36.87h34.32c0-44.92,14.83-86.87,73.73-86.87,5.93,0,9.32,0,14.41.85v31.78c-2.54,0-7.2-.42-10.17-.42-34.75,0-38.98,22.46-39.41,54.66Z"/>
      <path class="cls-1" d="M1791.49,432.67v214.83h-38.56v-29.66c-12.71,19.07-33.9,35.17-66.1,35.17-48.31,0-82.63-40.25-82.63-85.59v-134.75h38.56v123.31c0,30.51,12.71,60.17,52.97,60.17s57.2-34.75,57.2-60.17v-123.31h38.56Z"/>
      <path class="cls-1" d="M1863.96,350.89v296.62h-38.56v-296.62h38.56Z"/>
    </g>
    <path class="cls-1" d="M470.84,414.11c-.22,25.15-6.22,50.51-18.24,74.13-41.78,82.14-127.74,95.86-156.83,95.86-7.61,0-15.1-.47-22.43-1.39-1.13-4.46-2.22-8.94-3.24-13.43-12.27-53.42-10.22-109.26,13.91-158.87,24.89-51.21,64.17-88.44,110.64-119.96,5.73-3.89,12.8-4.01,18.7-1.32h.01c2.04.93,3.94,2.19,5.61,3.76,34.44,32.31,52.28,76.42,51.87,121.22ZM257.09,636.08c-8.99-70.02-31.46-145.25-103.97-171.87-18.73-6.88-37.7-11.23-57.62-13.12-4.83-.46-9.28,2.89-9.28,8.18v280.65c0,4.76,3.92,8.13,8.51,8.13h153.33c5.7,0,9.26-3.72,9.99-9.63,4.33-34.77,3.43-68.21-.95-102.34ZM343.98,259.39c-6.53-14.23-78.68-14.1-95.7-14.11l-153.76-.05c-4.84,0-8.3,3.91-8.3,8.55l-.02,164.28c0,4.33,2.1,8.13,6.86,8.82,50.87,7.37,102.42-3.35,145.95-31.04,45.68-29.06,80.94-75.87,104.65-123.72,1.76-3.55,1.79-9.56.33-12.74Z"/>
  </g>
</svg>