<?xml version="1.0" encoding="UTF-8"?>
<svg id="Layer_1" data-name="Layer 1" xmlns="http://www.w3.org/2000/svg" xmlns:xlink="http://www.w3.org/1999/xlink" viewBox="0 0 2000 1000">
  <defs>
    <style>
      .cls-1 {
        filter: url(#drop-shadow-2);
      }
    </style>
    <filter id="drop-shadow-2" x="86.19" y="245.23" width="1770.37" height="502.83" filterUnits="userSpaceOnUse">
      <feOffset dx="3.06" dy="3.06"/>
      <feGaussianBlur result="blur" stdDeviation="2.19"/>
      <feFlood flood-color="#000" flood-opacity=".2"/>
      <feComposite in2="blur" operator="in"/>
      <feComposite in="SourceGraphic"/>
    </filter>
  </defs>
  <g class="cls-1">
    <g>
      <path d="M789.73,449.05c0,53.93-40.03,96.07-106.6,96.07h-51.83v102.39h-42.13v-294.94h93.96c66.57,0,106.6,42.55,106.6,96.49ZM746.33,449.05c0-34.55-23.59-58.14-63.2-58.14h-51.83v115.87h51.83c39.61,0,63.2-23.17,63.2-57.72Z"/>
      <path d="M1002.5,557.33h-169.8c5.9,34.97,32.02,58.99,73.73,58.99,23.17,0,44.24-8.85,56.04-24.02l31.6,20.22c-18.96,25.7-50.14,40.45-87.64,40.45-70.79,0-114.6-50.56-114.6-112.08s45.5-112.08,108.28-112.08c58.15,0,112.5,48.88,102.39,128.51ZM963.74,524.47c-5.06-36.24-27.39-59.41-63.62-59.41s-61.52,24.02-67.41,59.41h131.04Z"/>
      <path d="M1247.3,540.9c0,56.04-39.61,112.08-106.18,112.08-37.08,0-61.94-15.17-77.95-35.39v111.23h-38.34v-294.94h38.34v29.92c16.01-19.8,40.87-34.97,77.95-34.97,66.57,0,106.18,56.04,106.18,112.08ZM1208.12,540.9c0-42.98-26.97-75.84-70.79-75.84-47.19,0-74.16,33.71-74.16,75.84s26.97,75.42,74.16,75.42c43.82,0,70.79-32.44,70.79-75.42Z"/>
      <path d="M1321.03,470.54v93.54c0,30.34.42,50.56,33.71,50.56,6.32,0,10.96-.42,15.59-.84v33.71c-5.48,1.26-12.22,2.11-20.65,2.11-46.35,0-66.99-24.86-66.99-71.63v-107.44h-33.29v-36.66h33.29v-44.66h38.34v44.66h49.3v36.66h-49.3Z"/>
      <path d="M1395.19,374.05c0-11.8,9.69-21.91,21.91-21.91s21.91,10.11,21.91,21.91-9.69,21.91-21.91,21.91-21.91-9.69-21.91-21.91ZM1397.72,433.88h38.76v213.62h-38.76v-213.62Z"/>
      <path d="M1530.02,433.88h49.3v36.66h-49.3v176.96h-38.34v-176.96h-34.13v-36.66h34.13c0-44.66,14.75-86.38,73.31-86.38,5.9,0,9.27,0,14.33.84v31.6c-2.53,0-7.16-.42-10.11-.42-34.55,0-38.76,22.33-39.18,54.35Z"/>
      <path d="M1784.51,433.88v213.62h-38.34v-29.49c-12.64,18.96-33.71,34.97-65.73,34.97-48.03,0-82.16-40.03-82.16-85.11v-133.99h38.34v122.61c0,30.34,12.64,59.83,52.67,59.83s56.88-34.55,56.88-59.83v-122.61h38.34Z"/>
      <path d="M1856.56,352.56v294.94h-38.34v-294.94h38.34Z"/>
    </g>
    <path d="M470.84,414.11c-.22,25.15-6.22,50.51-18.24,74.13-41.78,82.14-127.74,95.86-156.83,95.86-7.61,0-15.1-.47-22.43-1.39-1.13-4.46-2.22-8.94-3.24-13.43-12.27-53.42-10.22-109.26,13.91-158.87,24.89-51.21,64.17-88.44,110.64-119.96,5.73-3.89,12.8-4.01,18.7-1.32h.01c2.04.93,3.94,2.19,5.61,3.76,34.44,32.31,52.28,76.42,51.87,121.22ZM257.09,636.08c-8.99-70.02-31.46-145.25-103.97-171.87-18.73-6.88-37.7-11.23-57.62-13.12-4.83-.46-9.28,2.89-9.28,8.18v280.65c0,4.76,3.92,8.13,8.51,8.13h153.33c5.7,0,9.26-3.72,9.99-9.63,4.33-34.77,3.43-68.21-.95-102.34ZM343.98,259.39c-6.53-14.23-78.68-14.1-95.7-14.11l-153.76-.05c-4.84,0-8.3,3.91-8.3,8.55l-.02,164.28c0,4.33,2.1,8.13,6.86,8.82,50.87,7.37,102.42-3.35,145.95-31.04,45.68-29.06,80.94-75.87,104.65-123.72,1.76-3.55,1.79-9.56.33-12.74Z"/>
  </g>
</svg>