<svg width="180" height="48" viewBox="0 0 336 90" fill="none" xmlns="http://www.w3.org/2000/svg">
<path d="M117.11 0.320312H131.52C136.05 0.320312 139.49 1.6003 141.83 4.1503C144.13 6.6703 145.28 9.72031 145.28 13.3203C145.28 16.9203 144.07 20.0303 141.66 22.4403C139.29 24.8903 135.71 26.1103 130.92 26.1103H124.44V40.1903H117.1V0.320312H117.11ZM124.45 19.3703H131.14C133.23 19.3703 134.85 18.7903 136.02 17.6203C137.19 16.4503 137.77 14.9903 137.77 13.2203C137.77 11.4503 137.22 10.0103 136.12 8.88031C135.02 7.75031 133.54 7.1803 131.67 7.1803H124.44V19.3803L124.45 19.3703Z" fill="white"/>
<path d="M177.699 40.2021H151.209V0.332031H177.699V7.24203H158.599V16.632H176.239V23.4821H158.599V33.302H177.699V40.212V40.2021Z" fill="white"/>
<path d="M185.199 0.320312H199.609C204.139 0.320312 207.579 1.6003 209.919 4.1503C212.219 6.6703 213.369 9.72031 213.369 13.3203C213.369 16.9203 212.159 20.0303 209.749 22.4403C207.379 24.8903 203.799 26.1103 199.009 26.1103H192.529V40.1903H185.189V0.320312H185.199ZM192.539 19.3703H199.229C201.319 19.3703 202.939 18.7903 204.109 17.6203C205.279 16.4503 205.859 14.9903 205.859 13.2203C205.859 11.4503 205.309 10.0103 204.209 8.88031C203.109 7.75031 201.629 7.1803 199.759 7.1803H192.529V19.3803L192.539 19.3703Z" fill="white"/>
<path d="M226.96 40.2021V7.45206H215.47V0.332031H245.9V7.45206H234.41V40.2021H226.96Z" fill="white"/>
<path d="M251.24 40.2021V0.332031H258.63V40.2021H251.24Z" fill="white"/>
<path d="M282.86 40.2021H267.81V0.332031H283.19C289.09 0.332031 293.73 2.13205 297.11 5.72205C300.49 9.25205 302.18 14.122 302.18 20.342C302.18 26.562 300.45 31.2921 297 34.8521C293.62 38.4121 288.91 40.192 282.86 40.192V40.2021ZM275.14 7.39206V33.132H283.13C286.69 33.132 289.48 31.912 291.49 29.462C293.5 27.012 294.51 23.922 294.51 20.182C294.51 16.442 293.52 13.472 291.54 11.062C289.52 8.61204 286.74 7.39206 283.18 7.39206H275.14Z" fill="white"/>
<path d="M335.679 40.2021H309.189V0.332031H335.679V7.24203H316.579V16.632H334.219V23.4821H316.579V33.302H335.679V40.212V40.2021Z" fill="white"/>
<path d="M124.299 89.6803H117.109V50.3203H121.689L137.449 73.2703L153.159 50.3203H157.789V89.6803H150.549V66.3503L138.619 83.6103H136.219L124.289 66.3503V89.6803H124.299Z" fill="white"/>
<path d="M198.65 89.6803H190.93L187.68 80.7303H173.73L170.48 89.6803H162.76L177.99 50.3203H183.58L198.65 89.6803ZM185.6 74.1803L180.75 60.7103L175.85 74.1803H185.6Z" fill="white"/>
<path d="M233.159 89.6803H224.529L215.739 74.9303H210.889V89.6803H203.649V50.3203H218.299C222.559 50.3203 225.829 51.5103 228.099 53.8903C230.369 56.2703 231.509 59.1803 231.509 62.6203C231.509 65.2803 230.799 67.6403 229.379 69.7003C227.959 71.7603 225.919 73.2103 223.249 74.0703L233.159 89.6703V89.6803ZM218.299 57.0803H210.899V68.3703H217.509C219.639 68.3703 221.259 67.8403 222.379 66.7703C223.499 65.7003 224.059 64.3403 224.059 62.6703C224.059 61.0003 223.539 59.7003 222.519 58.6503C221.489 57.6003 220.089 57.0803 218.309 57.0803H218.299Z" fill="white"/>
<path d="M271.98 89.6803H263.03L251.37 73.6503L246.42 79.6703V89.6803H239.18V50.3203H246.42V69.6503L262.08 50.3203H270.87L256.17 68.3203L271.99 89.6803H271.98Z" fill="white"/>
<path d="M302.02 89.6803H275.87V50.3203H302.02V57.1403H283.17V66.4103H300.59V73.1703H283.17V82.8603H302.02V89.6803Z" fill="white"/>
<path d="M316.989 89.6803V57.3503H305.649V50.3203H335.689V57.3503H324.349V89.6803H316.999H316.989Z" fill="white"/>
<path d="M46.9398 62.2719L88.7398 20.4919L88.6298 20.3719L70.1798 0.421875L27.6298 42.9719V0.621857H0.319824V68.9419L19.4098 89.5818H90.7598V62.2719H46.9398Z" fill="white"/>
</svg>
